<svg width="17" height="16" fill="none" xmlns="http://www.w3.org/2000/svg"><path d="M12.121 4c.77 0 1.394-.597 1.394-1.333 0-.737-.624-1.334-1.394-1.334-.77 0-1.394.597-1.394 1.334 0 .736.624 1.333 1.394 1.333zm-.852 3.313c.16.228.39.403.657.502.268.1.561.117.84.051l2.31-.553-.336-1.293-2.31.553-.962-1.378a1.405 1.405 0 00-.886-.57L7.9 4.112a1.45 1.45 0 00-.886.11 1.36 1.36 0 00-.634.601L5.225 7.034l1.247.597 1.156-2.212 1.37.263-3.544 5.651h-3.09v1.334h3.09c.486 0 .944-.248 1.195-.648l1.337-2.13 3.603.689 1.265 3.633 1.322-.422-1.265-3.632a1.336 1.336 0 00-.4-.578 1.424 1.424 0 00-.65-.309l-2.118-.405 1.235-1.969.29.417z" fill="#1D2E5B"/></svg>