<svg width="17" height="16" fill="none" xmlns="http://www.w3.org/2000/svg"><path opacity=".15" d="M12.949 14a3.104 3.104 0 01-1.67-.485 2.906 2.906 0 01-1.107-1.29 2.759 2.759 0 01-.171-1.66c.116-.559.402-1.07.822-1.473a3.05 3.05 0 011.54-.787 3.133 3.133 0 011.736.164 2.98 2.98 0 011.349 1.059c.33.473.506 1.028.506 1.597 0 .762-.317 1.493-.88 2.032a3.08 3.08 0 01-2.125.843zm0-4.75c-.388 0-.767.11-1.09.316a1.895 1.895 0 00-.721.841 1.8 1.8 0 00-.112 1.084c.076.364.263.698.537.96s.623.44 1.003.513c.38.072.775.035 1.133-.107a1.95 1.95 0 00.88-.69c.215-.309.33-.671.33-1.042 0-.497-.207-.974-.575-1.325a2.009 2.009 0 00-1.385-.55zM4.324 14a3.104 3.104 0 01-1.67-.485 2.906 2.906 0 01-1.107-1.29 2.76 2.76 0 01-.171-1.66c.116-.559.402-1.07.822-1.473a3.05 3.05 0 011.54-.787 3.133 3.133 0 011.736.164 2.97 2.97 0 011.349 1.059c.33.473.506 1.028.506 1.597 0 .762-.317 1.493-.88 2.032A3.08 3.08 0 014.323 14zm0-4.75c-.388 0-.767.11-1.09.316a1.896 1.896 0 00-.721.841 1.8 1.8 0 00-.112 1.084c.076.364.263.698.537.96s.623.44 1.003.513c.38.072.775.035 1.133-.107a1.95 1.95 0 00.88-.69c.215-.309.33-.671.33-1.042 0-.497-.207-.974-.575-1.325a2.009 2.009 0 00-1.385-.55zM10.727 4a1.083 1.083 0 00.742-.293.994.994 0 00.226-.326.959.959 0 00.078-.384.95.95 0 00-.301-.707 1.072 1.072 0 00-.738-.29 1.087 1.087 0 00-.74.29.999.999 0 00-.228.324.963.963 0 00.223 1.09 1.052 1.052 0 00.738.296z" fill="#1D2E5B"/><path opacity=".15" d="M12.28 6h-1.429a.135.135 0 01-.067-.017.129.129 0 01-.048-.048L9.7 4.117a.982.982 0 00-.307-.34 1.039 1.039 0 00-.904-.136 1.022 1.022 0 00-.402.234l-2.282 2.2a.996.996 0 00-.304.7c0 .544.412.738.604.847.932.513 1.587.888 1.947 1.097a.12.12 0 01.063.107v2.16c0 .268.216.5.497.513a.543.543 0 00.386-.137A.5.5 0 009.16 11V8.313c0-.08-.02-.158-.057-.229a.507.507 0 00-.16-.178l-1.21-.831a.127.127 0 01-.053-.09.12.12 0 01.035-.098l1.372-1.4a.131.131 0 01.111-.038.127.127 0 01.098.063l.713 1.23a.51.51 0 00.193.19.54.54 0 00.265.068h1.83a.543.543 0 00.378-.155.5.5 0 00.144-.369c-.013-.27-.256-.476-.537-.476z" fill="#1D2E5B"/></svg>