<svg width="17" height="16" fill="none" xmlns="http://www.w3.org/2000/svg"><path d="M4.456 10.857c0-.315-.136-.585-.409-.808a1.503 1.503 0 00-.985-.335c-.384 0-.713.112-.985.335-.272.223-.408.493-.408.808 0 .316.136.585.408.808.272.223.6.335.985.335s.713-.112.986-.335c.272-.223.408-.492.408-.808zm11.147 0c0-.315-.136-.585-.409-.808a1.504 1.504 0 00-.985-.335c-.384 0-.713.112-.985.335-.272.223-.408.493-.408.808 0 .316.136.585.408.808.272.223.6.335.985.335s.713-.112.985-.335c.272-.223.409-.492.409-.808zm-.501-3.536l-.784-3.428a.576.576 0 00-.245-.335.766.766 0 00-.44-.13H3.638a.765.765 0 00-.44.13.575.575 0 00-.245.335L2.17 7.32a.495.495 0 00.152.474.725.725 0 00.534.205h11.56a.724.724 0 00.533-.205.495.495 0 00.153-.474zm-2.46-5.464a.38.38 0 00-.153-.303.565.565 0 00-.37-.125H5.152a.565.565 0 00-.37.125.38.38 0 00-.152.303c0 .12.05.22.152.304a.565.565 0 00.37.125h6.967a.565.565 0 00.37-.125.38.38 0 00.153-.304zm4.354 6.473v5.384h-1.393v1.143c0 .316-.136.585-.409.808-.272.223-.6.335-.985.335-.384 0-.713-.112-.985-.335-.272-.223-.408-.492-.408-.808v-1.143h-8.36v1.143c0 .316-.136.585-.409.808-.272.223-.6.335-.985.335-.384 0-.713-.112-.985-.335-.272-.223-.408-.492-.408-.808v-1.143H.276V8.33c0-.666.09-1.33.272-1.99l1.121-4.054c.065-.465.42-.872 1.061-1.224.643-.35 1.477-.616 2.504-.794A19.92 19.92 0 018.636 0c1.24 0 2.375.09 3.402.268 1.026.178 1.861.443 2.503.794.643.352.996.76 1.062 1.224l1.143 4.053c.167.607.25 1.271.25 1.991z" fill="#1D2E5B"/></svg>